<svg width="99" height="99" viewBox="0 0 99 99" fill="none" xmlns="http://www.w3.org/2000/svg">
<path d="M49.971 0.529419C62.834 0.529419 75.1704 5.69168 84.266 14.881C93.3615 24.0702 98.471 36.5338 98.471 49.5294C98.471 59.2206 95.6266 68.6942 90.2972 76.7521C84.9681 84.81 77.3936 91.0912 68.5316 94.7999C59.6694 98.5083 49.9172 99.4786 40.5091 97.588C31.1011 95.697 22.4589 91.0305 15.6761 84.1779C8.8933 77.3252 4.27407 68.5941 2.40268 59.089C0.531294 49.5839 1.49161 39.7312 5.16244 30.7775C8.83332 21.824 15.05 14.1714 23.0257 8.78723C31.0015 3.40305 40.3786 0.529419 49.971 0.529419ZM69.3294 21.5792C67.7976 21.0251 66.1251 21.012 64.5853 21.5431C63.0455 22.0743 61.7302 23.1181 60.8538 24.5031C59.9775 25.888 59.5921 27.5322 59.7611 29.1671L20.763 77.7501C20.7672 77.7678 20.9327 78.4531 21.5179 78.1486C22.4703 77.6219 25.6149 74.1733 38.7982 60.8361C43.2365 56.3519 50.6165 56.7132 50.6712 56.7159H58.2699C68.5085 56.7159 74.2923 46.8074 72.64 35.6827C71.7491 29.797 73.3856 27.5704 73.4124 27.5343L76.6097 23.5773L73.0169 24.5939C72.1612 23.1961 70.8612 22.1334 69.3294 21.5792ZM52.0189 59.4376V63.2491H76.3939V59.4376H52.0189ZM66.9466 25.0079C67.453 25.0128 67.937 25.2196 68.2933 25.5831C68.6499 25.9467 68.8499 26.4376 68.8499 26.9493C68.8499 27.3342 68.7369 27.7107 68.5247 28.0304C68.313 28.35 68.0117 28.5988 67.6595 28.7452C67.3072 28.8917 66.9194 28.929 66.5462 28.8527C66.1728 28.7762 65.8308 28.5888 65.5628 28.3156C65.295 28.0423 65.1134 27.6951 65.0413 27.3175C64.969 26.9396 65.0095 26.548 65.1576 26.1935C65.3059 25.8391 65.5552 25.5374 65.8734 25.3263C66.1918 25.1151 66.5655 25.0043 66.9466 25.0079Z" fill="#4DC9C3"/>
</svg>
