<svg width="98" height="102" viewBox="0 0 98 102" fill="none" xmlns="http://www.w3.org/2000/svg">
<path fill-rule="evenodd" clip-rule="evenodd" d="M22.3916 8.7527C30.4158 3.39114 39.8495 0.529419 49.5002 0.529419C62.4411 0.529419 74.8521 5.6702 84.0028 14.8209C93.1535 23.9715 98.2943 36.3823 98.2943 49.3234C98.2943 58.974 95.4326 68.4079 90.0707 76.432C84.7093 84.4561 77.0888 90.7103 68.1729 94.4035C59.257 98.0963 49.446 99.0628 39.9809 97.1801C30.5157 95.2971 21.8215 90.6499 14.9975 83.826C8.17355 77.002 3.52637 68.3079 1.64364 58.8427C-0.239089 49.3775 0.727197 39.5669 4.42029 30.6508C8.11342 21.7348 14.3675 14.1143 22.3916 8.7527ZM51.5603 62.9858H76.0837V59.1906H51.5603V62.9858ZM72.3069 35.5346C71.4032 29.6251 73.084 27.4204 73.084 27.4204L76.3006 23.4807L72.6862 24.4927C71.8252 23.1007 70.5171 22.0422 68.9759 21.4903C67.4347 20.9385 65.7521 20.926 64.203 21.455C62.6539 21.9839 61.3302 23.023 60.4486 24.4021C59.567 25.7813 59.1794 27.4188 59.3494 29.0468L20.1153 77.4252C20.1153 77.4252 20.2779 78.13 20.8743 77.8227C21.4991 77.481 23.0619 75.9012 27.7546 71.1575C30.2561 68.6288 33.647 65.201 38.2594 60.5824C42.7413 56.1004 50.2049 56.4799 50.2049 56.4799H57.8492C68.1501 56.4799 73.9695 46.6127 72.3069 35.5346ZM65.4986 25.2214C65.8189 25.0111 66.1944 24.9008 66.5778 24.9044C67.0874 24.9091 67.5746 25.1149 67.9332 25.4771C68.2921 25.8392 68.4931 26.3283 68.4931 26.838C68.4931 27.2213 68.3793 27.5958 68.1659 27.9142C67.9528 28.2326 67.6498 28.4804 67.2953 28.6262C66.9409 28.772 66.5513 28.8092 66.1758 28.7332C65.8 28.6571 65.4555 28.4711 65.1859 28.1989C64.9163 27.9266 64.7336 27.5804 64.6611 27.2041C64.5884 26.8278 64.6294 26.4385 64.7784 26.0855C64.9277 25.7325 65.1783 25.4317 65.4986 25.2214Z" fill="white"/>
</svg>
